<svg width="697" height="218" viewBox="0 0 697 218" fill="none" xmlns="http://www.w3.org/2000/svg">
<rect x="17" y="68" width="46" height="113" fill="#1AD661"/>
<path d="M525.5 22.5V148.11L480.5 120.719V22.5H525.5Z" fill="#1AD662" stroke="#1AD662"/>
<rect width="118" height="44" fill="#1AD661"/>
<rect y="168" width="118" height="44" fill="#1AD661"/>
<path d="M112.5 190C158.892 190 196.5 152.392 196.5 106C196.5 59.6081 158.892 22 112.5 22" stroke="#1AD661" stroke-width="44"/>
<rect x="676.5" y="84" width="67" height="44" transform="rotate(90 676.5 84)" fill="#1AD662"/>
<rect x="581.5" y="81" width="67" height="44" transform="rotate(90 581.5 81)" fill="#1AD662"/>
<path d="M559.453 147.68C559.453 173.939 580.74 195.227 607 195.227C633.259 195.227 654.547 173.939 654.547 147.68" stroke="#1AD662" stroke-width="44"/>
<path d="M654.5 133C654.5 156.347 665.93 177.025 683.5 189.743" stroke="#1AD662" stroke-width="44"/>
<rect x="365.5" y="84" width="67" height="44" transform="rotate(90 365.5 84)" fill="#1AD662"/>
<rect x="270.5" y="81" width="67" height="44" transform="rotate(90 270.5 81)" fill="#1AD662"/>
<path d="M248.453 147.68C248.453 173.939 269.74 195.227 296 195.227C322.259 195.227 343.547 173.939 343.547 147.68" stroke="#1AD662" stroke-width="44"/>
<path d="M343.5 133C343.5 156.347 354.93 177.025 372.5 189.743" stroke="#1AD662" stroke-width="44"/>
<circle cx="456" cy="148" r="48" stroke="#1AD662" stroke-width="44"/>
</svg>
